<?xml version="1.0" encoding="UTF-8" standalone="no"?>
<svg
   width="128"
   height="128"
   viewBox="0 0 33.866665 33.866668"
   version="1.1"
   id="svg8"
   inkscape:version="1.3 (0e150ed6c4, 2023-07-21)"
   sodipodi:docname="favicon.svg"
   inkscape:export-filename="E:\Users\Bastien\Downloads\image.png"
   inkscape:export-xdpi="96"
   inkscape:export-ydpi="96"
   xmlns:inkscape="http://www.inkscape.org/namespaces/inkscape"
   xmlns:sodipodi="http://sodipodi.sourceforge.net/DTD/sodipodi-0.dtd"
   xmlns="http://www.w3.org/2000/svg"
   xmlns:svg="http://www.w3.org/2000/svg"
   xmlns:rdf="http://www.w3.org/1999/02/22-rdf-syntax-ns#"
   xmlns:cc="http://creativecommons.org/ns#"
   xmlns:dc="http://purl.org/dc/elements/1.1/">
  <defs
     id="defs2">
    <filter
       style="color-interpolation-filters:sRGB"
       inkscape:label="Drop Shadow"
       id="filter1208">
      <feFlood
         flood-opacity="0.635294"
         flood-color="rgb(0,0,0)"
         result="flood"
         id="feFlood1198" />
      <feComposite
         in="flood"
         in2="SourceGraphic"
         operator="in"
         result="composite1"
         id="feComposite1200" />
      <feGaussianBlur
         in="composite1"
         stdDeviation="0.1"
         result="blur"
         id="feGaussianBlur1202" />
      <feOffset
         dx="0.3"
         dy="0.3"
         result="offset"
         id="feOffset1204" />
      <feComposite
         in="SourceGraphic"
         in2="offset"
         operator="over"
         result="composite2"
         id="feComposite1206" />
    </filter>
    <filter
       style="color-interpolation-filters:sRGB"
       inkscape:label="Drop Shadow"
       id="filter113847"
       x="-0.25576553"
       y="0"
       width="1.2557656"
       height="1.0806593">
      <feFlood
         flood-opacity="0.341176"
         flood-color="rgb(0,0,0)"
         result="flood"
         id="feFlood113837" />
      <feComposite
         in="flood"
         in2="SourceGraphic"
         operator="in"
         result="composite1"
         id="feComposite113839" />
      <feGaussianBlur
         in="composite1"
         stdDeviation="2.77556e-17"
         result="blur"
         id="feGaussianBlur113841" />
      <feOffset
         dx="-2.39521"
         dy="1.1976"
         result="offset"
         id="feOffset113843" />
      <feComposite
         in="SourceGraphic"
         in2="offset"
         operator="over"
         result="composite2"
         id="feComposite113845" />
    </filter>
    <filter
       style="color-interpolation-filters:sRGB"
       inkscape:label="Drop Shadow"
       id="filter117792"
       x="-0.26797554"
       y="0"
       width="1.2679754"
       height="1.0845098">
      <feFlood
         flood-opacity="0.545098"
         flood-color="rgb(0,0,0)"
         result="flood"
         id="feFlood117782" />
      <feComposite
         in="flood"
         in2="SourceGraphic"
         operator="in"
         result="composite1"
         id="feComposite117784" />
      <feGaussianBlur
         in="composite1"
         stdDeviation="2.77556e-17"
         result="blur"
         id="feGaussianBlur117786" />
      <feOffset
         dx="-2.39521"
         dy="1.1976"
         result="offset"
         id="feOffset117788" />
      <feComposite
         in="SourceGraphic"
         in2="offset"
         operator="over"
         result="composite2"
         id="feComposite117790" />
    </filter>
    <filter
       style="color-interpolation-filters:sRGB"
       inkscape:label="Drop Shadow"
       id="filter118253"
       x="-0.26797554"
       y="0"
       width="1.2679754"
       height="1.0211698">
      <feFlood
         flood-opacity="0.545098"
         flood-color="rgb(0,0,0)"
         result="flood"
         id="feFlood118243" />
      <feComposite
         in="flood"
         in2="SourceGraphic"
         operator="in"
         result="composite1"
         id="feComposite118245" />
      <feGaussianBlur
         in="composite1"
         stdDeviation="2.77556e-17"
         result="blur"
         id="feGaussianBlur118247" />
      <feOffset
         dx="-2.39521"
         dy="0.3"
         result="offset"
         id="feOffset118249" />
      <feComposite
         in="SourceGraphic"
         in2="offset"
         operator="over"
         result="composite2"
         id="feComposite118251" />
    </filter>
  </defs>
  <sodipodi:namedview
     id="base"
     pagecolor="#ffffff"
     bordercolor="#666666"
     borderopacity="1.0"
     inkscape:pageopacity="0.0"
     inkscape:pageshadow="2"
     inkscape:zoom="2.8284271"
     inkscape:cx="14.672466"
     inkscape:cy="83.968931"
     inkscape:document-units="px"
     inkscape:current-layer="layer1"
     showgrid="false"
     units="px"
     inkscape:window-width="1920"
     inkscape:window-height="1017"
     inkscape:window-x="1672"
     inkscape:window-y="-8"
     inkscape:window-maximized="1"
     fit-margin-top="0"
     fit-margin-left="0"
     fit-margin-right="0"
     fit-margin-bottom="0"
     objecttolerance="1"
     gridtolerance="1"
     guidetolerance="1"
     inkscape:document-rotation="0"
     showguides="false"
     inkscape:showpageshadow="2"
     inkscape:pagecheckerboard="0"
     inkscape:deskcolor="#d1d1d1" />
  <metadata
     id="metadata5">
    <rdf:RDF>
      <cc:Work
         rdf:about="">
        <dc:format>image/svg+xml</dc:format>
        <dc:type
           rdf:resource="http://purl.org/dc/dcmitype/StillImage" />
      </cc:Work>
    </rdf:RDF>
  </metadata>
  <g
     inkscape:groupmode="layer"
     id="layer2"
     inkscape:label="background"
     style="display:inline"
     transform="translate(-11.215805,-6.9263499)" />
  <g
     inkscape:label="Calque 1"
     inkscape:groupmode="layer"
     id="layer1"
     transform="translate(-131.036,-128.74272)"
     style="display:inline;opacity:1">
    <g
       id="g1"
       transform="matrix(0.78232224,0,0,0.78232224,34.778301,33.397031)"
       style="stroke-width:1.27824">
      <path
         fill="#689f38"
         d="m 148.72048,138.98247 h -8.06903 c 0,17.0859 -10.08373,9.79435 -10.08373,23.19262 0,0 0.55056,2.01677 14.11825,2.01677 13.56768,0 14.11824,-2.01677 14.11824,-2.01677 0,-13.39827 -10.08373,-6.10672 -10.08373,-23.19262 z"
         id="path1"
         style="fill:#b38658;fill-opacity:1;stroke-width:0.338202" />
      <path
         fill="#33691e"
         d="m 148.72048,138.98247 h -8.06903 c 0,1.13645 -0.0473,2.15895 -0.1311,3.09269 1.88463,0.18142 5.80824,0.63529 5.80824,3.79655 0,2.72461 -1.75257,11.77578 -6.68455,12.2699 -4.49833,0.45075 -8.34225,-1.10319 -8.34225,-1.10319 -0.45883,1.28468 -0.73411,2.92832 -0.73411,5.13667 0,0 0.55057,2.01677 14.11825,2.01677 13.56768,0 14.11825,-2.01677 14.11825,-2.01677 0,-13.39827 -10.08374,-6.10672 -10.08374,-23.19262 z"
         id="path2"
         style="fill:#8e5a2e;fill-opacity:1;stroke-width:0.338202" />
      <path
         fill="#689f38"
         d="m 146.72289,133.94062 h -2.03692 -2.03693 c -2.00262,1.34516 -4.00524,2.69031 -6.00687,4.03448 0.0305,0.43161 0.11395,1.00535 0.33462,1.64768 0.19856,0.57782 0.44972,1.04065 0.66856,1.38251 l 7.04249,-0.0114 7.03947,0.0114 c 0.21876,-0.34186 0.46988,-0.80469 0.66852,-1.38251 0.22105,-0.64233 0.30451,-1.21607 0.335,-1.64768 -2.00266,-1.34417 -4.00528,-2.68932 -6.0079,-4.03448 z"
         id="path3"
         style="fill:#b38658;fill-opacity:1;stroke-width:0.338202" />
      <path
         fill="#33691e"
         d="m 146.70273,140.99824 1.09305,0.48703 0.98419,-0.48402 2.94647,0.004 c 0.21876,-0.34186 0.46991,-0.80469 0.66855,-1.3825 0.22067,-0.64234 0.30452,-1.21608 0.33462,-1.64769 -2.00262,-1.34516 -4.00524,-2.69031 -6.00687,-4.03448 h -2.03692 l 3.02512,4.03349 z"
         id="path4"
         style="fill:#8e5a2e;fill-opacity:1;stroke-width:0.338202" />
      <circle
         cx="144.68599"
         cy="129.9071"
         r="7.0586214"
         fill="#689f38"
         id="circle4"
         style="fill:#b38658;fill-opacity:1;stroke-width:0.338202" />
      <path
         fill="#33691e"
         d="m 148.60249,124.03636 c 0.74924,1.12132 1.18787,2.46747 1.18787,3.91652 0,3.04124 -1.92297,5.63277 -4.61938,6.62604 l 1.55694,2.08734 c 0.43863,-0.13225 1.04872,0.0595 1.446,-0.1513 0.36397,-0.19247 0.51931,-0.78148 0.842,-1.0326 1.65977,-1.2907 2.72866,-3.30845 2.72866,-5.5753 0,-2.44933 -1.24836,-4.60524 -3.14209,-5.87074 z"
         id="path5"
         style="fill:#8e5a2e;fill-opacity:1;stroke-width:0.338202" />
      <path
         fill="#9ccc65"
         d="m 145.37469,124.58997 c 0.37502,0.98111 -0.53041,2.57739 -2.02279,3.56559 -1.49242,0.98721 -3.00698,0.99224 -3.38211,0.0114 -0.37502,-0.98115 0.5304,-2.57739 2.02282,-3.56559 1.49238,-0.98824 3.00595,-0.99327 3.38208,-0.0114 z"
         id="path6"
         style="fill:#cdaf91;fill-opacity:1;stroke-width:0.338202" />
    </g>
  </g>
</svg>
