<?xml version="1.0" encoding="UTF-8" standalone="no"?>
<svg
   inkscape:version="1.3 (0e150ed6c4, 2023-07-21)"
   sodipodi:docname="add.svg"
   id="svg7"
   viewBox="0 0 32 32"
   height="32"
   width="32"
   version="1.1"
   xmlns:inkscape="http://www.inkscape.org/namespaces/inkscape"
   xmlns:sodipodi="http://sodipodi.sourceforge.net/DTD/sodipodi-0.dtd"
   xmlns="http://www.w3.org/2000/svg"
   xmlns:svg="http://www.w3.org/2000/svg"
   xmlns:rdf="http://www.w3.org/1999/02/22-rdf-syntax-ns#"
   xmlns:cc="http://creativecommons.org/ns#"
   xmlns:dc="http://purl.org/dc/elements/1.1/">
  <path
     id="rect3"
     style="fill:#000000;stroke:none;stroke-width:3;stroke-linejoin:round"
     d="m 16.000241,0.9549014 c -1.840535,0 -3.322641,1.4821061 -3.322641,3.3226405 V 12.678081 H 4.2770615 c -1.8405346,0 -3.32216025,1.481625 -3.32216025,3.32216 0,1.840534 1.48162565,3.32216 3.32216025,3.32216 H 12.6776 v 8.400537 c 0,1.840534 1.482106,3.322161 3.322641,3.322161 1.840534,0 3.32216,-1.481627 3.32216,-3.322161 v -8.400537 h 8.400537 c 1.840534,0 3.322161,-1.481626 3.322161,-3.32216 0,-1.840535 -1.481627,-3.32216 -3.322161,-3.32216 H 19.322401 V 4.2775419 c 0,-1.8405344 -1.481626,-3.3226405 -3.32216,-3.3226405 z" />
  <metadata
     id="metadata13">
    <rdf:RDF>
      <cc:Work
         rdf:about="">
        <dc:format>image/svg+xml</dc:format>
        <dc:type
           rdf:resource="http://purl.org/dc/dcmitype/StillImage" />
      </cc:Work>
    </rdf:RDF>
  </metadata>
  <defs
     id="defs11" />
  <sodipodi:namedview
     inkscape:current-layer="svg7"
     inkscape:window-maximized="1"
     inkscape:window-y="-8"
     inkscape:window-x="1672"
     inkscape:cy="29.533733"
     inkscape:cx="51.496463"
     inkscape:zoom="7.3306006"
     showgrid="false"
     id="namedview9"
     inkscape:window-height="1017"
     inkscape:window-width="1920"
     inkscape:pageshadow="2"
     inkscape:pageopacity="0"
     guidetolerance="10"
     gridtolerance="10"
     objecttolerance="10"
     borderopacity="1"
     bordercolor="#666666"
     pagecolor="#ffffff"
     inkscape:showpageshadow="2"
     inkscape:pagecheckerboard="0"
     inkscape:deskcolor="#d1d1d1" />
  <g
     id="icomoon-ignore" />
</svg>
