<?xml version="1.0" encoding="UTF-8" standalone="no"?>
<svg
   xmlns:dc="http://purl.org/dc/elements/1.1/"
   xmlns:cc="http://creativecommons.org/ns#"
   xmlns:rdf="http://www.w3.org/1999/02/22-rdf-syntax-ns#"
   xmlns:svg="http://www.w3.org/2000/svg"
   xmlns="http://www.w3.org/2000/svg"
   xmlns:sodipodi="http://sodipodi.sourceforge.net/DTD/sodipodi-0.dtd"
   xmlns:inkscape="http://www.inkscape.org/namespaces/inkscape"
   inkscape:version="0.92.3 (2405546, 2018-03-11)"
   sodipodi:docname="ok.svg"
   id="svg7"
   viewBox="0 0 512 512"
   height="512"
   width="512"
   version="1.1">
  <metadata
     id="metadata13">
    <rdf:RDF>
      <cc:Work
         rdf:about="">
        <dc:format>image/svg+xml</dc:format>
        <dc:type
           rdf:resource="http://purl.org/dc/dcmitype/StillImage" />
        <dc:title />
      </cc:Work>
    </rdf:RDF>
  </metadata>
  <defs
     id="defs11" />
  <sodipodi:namedview
     inkscape:current-layer="svg7"
     inkscape:window-maximized="1"
     inkscape:window-y="-8"
     inkscape:window-x="-8"
     inkscape:cy="719.07415"
     inkscape:cx="-2961.8805"
     inkscape:zoom="0.091845269"
     showgrid="false"
     id="namedview9"
     inkscape:window-height="1017"
     inkscape:window-width="1920"
     inkscape:pageshadow="2"
     inkscape:pageopacity="0"
     guidetolerance="10"
     gridtolerance="10"
     objecttolerance="10"
     borderopacity="1"
     bordercolor="#666666"
     pagecolor="#ffffff" />
  <g
     id="icomoon-ignore" />
  <path
     style="color:#000000;clip-rule:nonzero;display:inline;overflow:visible;visibility:visible;opacity:1;isolation:auto;mix-blend-mode:normal;color-interpolation:sRGB;color-interpolation-filters:linearRGB;solid-color:#000000;solid-opacity:1;vector-effect:none;fill:#000000;fill-opacity:1;fill-rule:nonzero;stroke:none;stroke-width:0.74564809;stroke-linecap:round;stroke-linejoin:round;stroke-miterlimit:4;stroke-dasharray:none;stroke-dashoffset:0;stroke-opacity:1;paint-order:markers fill stroke;color-rendering:auto;image-rendering:auto;shape-rendering:auto;text-rendering:auto;enable-background:accumulate"
     d="m 291.13125,23.063497 c -33.70327,0 -26.69362,26.694775 -29.22879,31.168658 0,85.078435 -90.22349,151.813655 -90.22349,151.813655 V 447.5615 c 0,23.78617 32.43571,32.35996 45.11171,32.35996 h 182.31099 c 17.14991,0 31.16721,-45.11171 31.16721,-45.11171 45.1117,-153.75263 45.11201,-199.53511 45.03743,-199.53511 0,-31.76462 -30.49729,-29.22883 -30.49729,-29.22883 H 323.49266 C 370.54306,31.937003 291.13125,23.063497 291.13125,23.063497 Z M 49.168412,206.19437 c -14.987537,0 -15.211525,14.76439 -15.211525,14.76439 l 15.062987,243.4541 c 0,15.50947 15.50858,15.5086 15.50858,15.5086 h 62.858736 c 13.1234,0 12.97456,-10.28908 12.97456,-10.28908 h -0.0746 V 224.68702 c 0,-18.71577 -18.49267,-18.49265 -18.49267,-18.49265 z"
     id="rect824"
     inkscape:connector-curvature="0"
     sodipodi:nodetypes="cccssscccccscccsccscs" />
</svg>
